Coordinates
version=1
nRows=26
nColumns=24
inDegrees=yes

Units are S.I. units (second, meters, Newtons, ...)
Angles are in degrees.

endheader
time	pelvis_tilt	pelvis_list	pelvis_rotation	pelvis_tx	pelvis_ty	pelvis_tz	hip_flexion_r	hip_adduction_r	hip_rotation_r	knee_angle_r	ankle_angle_r	subtalar_angle_r	mtp_angle_r	hip_flexion_l	hip_adduction_l	hip_rotation_l	knee_angle_l	ankle_angle_l	subtalar_angle_l	mtp_angle_l	lumbar_extension	lumbar_bending	lumbar_rotation
      3.99500000	     -8.10772246	      2.37040307	     -9.59147481	     -2.35775217	     -0.02302772	      0.48038712	     -6.02533106	     -1.78969521	      7.02480956	    -12.89592217	      4.26764309	      2.03820676	      6.39562561	     27.85076031	     -2.95657798	     -3.97462224	     -2.59791135	     -6.17042422	      4.22679654	     12.84245767	      6.74534361	     -1.86283756	     12.51304542
      4.00000000	     -8.16285061	      2.45557405	     -9.67957204	     -2.35094196	     -0.02350538	      0.47960388	     -6.10721079	     -2.02275005	      7.08499724	    -13.41543138	      3.97561241	      2.31969424	      6.73538431	     27.91205785	     -2.79940078	     -3.83740318	     -3.14258536	     -6.07810087	      4.47698168	     12.82811644	      6.94626028	     -1.89991761	     12.57818487
      4.00500000	     -8.15510778	      2.52682476	     -9.75139495	     -2.34407718	     -0.02393033	      0.47879570	     -6.25737918	     -2.23863209	      7.21232596	    -13.96409054	      3.61971916	      2.47009242	      6.80796544	     27.89907123	     -2.62510137	     -3.62920752	     -3.75384665	     -6.07750599	      4.51356026	     12.91177726	      7.07632393	     -1.93947255	     12.62353318
      4.01000000	     -8.27884596	      2.62235950	     -9.85111502	     -2.33710608	     -0.02450078	      0.47794942	     -6.20230053	     -2.48229992	      7.19115670	    -14.58385679	      3.29077441	      2.84843455	      7.38051439	     28.03691552	     -2.45453834	     -3.52472229	     -4.47377251	     -6.00501403	      4.65047114	     12.89594466	      7.36617016	     -1.97455275	     12.72514588
      4.01500000	     -8.26448353	      2.68508715	     -9.87876179	     -2.33010970	     -0.02492373	      0.47703525	     -6.34750896	     -2.68903916	      7.30844839	    -15.16762575	      2.85432221	      3.00527234	      7.45511522	     28.02789755	     -2.24847373	     -3.37017607	     -5.22714547	     -6.06721801	      4.65841985	     12.97527845	      7.49181533	     -2.01598140	     12.76579143
      4.02000000	     -8.44638346	      2.79530657	     -9.88656705	     -2.32297134	     -0.02554941	      0.47600219	     -6.21554982	     -2.93697636	      7.20305633	    -15.81788156	      2.39155734	      3.33423888	      8.16964737	     28.22926602	     -2.01268089	     -3.29871077	     -6.01378278	     -6.17477071	      4.73157877	     12.94800646	      7.85327006	     -2.06574496	     12.80973859
      4.02500000	     -8.43010263	      2.85444745	     -9.90069488	     -2.31593918	     -0.02596656	      0.47501759	     -6.29203902	     -3.13436385	      7.26993727	    -16.52366101	      1.87694106	      3.47455584	      8.28724857	     28.18907664	     -1.80050822	     -3.19537708	     -6.75832159	     -6.36593535	      4.76951545	     13.00383527	      7.96676168	     -2.10612889	     12.83860641
      4.03000000	     -8.61745443	      2.97360710	     -9.89471047	     -2.30877775	     -0.02654944	      0.47391474	     -6.09713827	     -3.39215503	      7.13636425	    -17.23876254	      1.27256761	      3.77044155	      9.21702447	     28.35680080	     -1.55278678	     -3.15774803	     -7.46109672	     -6.75869162	      4.74725477	     13.07807095	      8.32920010	     -2.17127575	     12.87163219
      4.03500000	     -8.68920565	      3.14642494	     -9.86427866	     -2.30159208	     -0.02696556	      0.47286955	     -6.00384684	     -3.69850547	      7.07898553	    -18.01943968	      0.61890362	      3.91586290	      9.67654460	     28.36318100	     -1.23571457	     -3.17760240	     -8.05205798	     -7.28627058	      4.79377151	     13.16984087	      8.57512098	     -2.33187076	     12.87132127
      4.04000000	     -8.78354960	      3.28961778	     -9.82739397	     -2.29452292	     -0.02732974	      0.47169852	     -5.83079190	     -3.98589638	      6.93375728	    -18.84996224	     -0.11556425	      4.16619602	     10.43140057	     28.39698777	     -0.94928734	     -3.23083005	     -8.59347171	     -8.02453056	      4.72182881	     13.34622769	      8.81437505	     -2.44583197	     12.91268133
      4.04500000	     -8.85090964	      3.52228415	     -9.77098992	     -2.28734830	     -0.02758941	      0.47060856	     -5.64598979	     -4.35252951	      6.80131150	    -19.75034306	     -0.93471960	      4.30995049	     10.93898015	     28.36435251	     -0.58077875	     -3.32730935	     -9.02805397	     -8.81931068	      4.73482054	     13.43426474	      9.05844730	     -2.67890248	     12.89602708
      4.05000000	     -8.93030798	      3.73002007	     -9.70724849	     -2.28034857	     -0.02777046	      0.46938691	     -5.38433772	     -4.70751868	      6.60050567	    -20.69672681	     -1.85468015	      4.53254696	     11.82416774	     28.36816753	     -0.23137537	     -3.39717437	     -9.45326627	     -9.81715097	      4.50390127	     13.54440556	      9.27630434	     -2.87220725	     12.94880775
      4.05500000	     -8.98419182	      3.98398777	     -9.62649923	     -2.27329833	     -0.02783677	      0.46821869	     -5.10960855	     -5.09877556	      6.41003884	    -21.69399394	     -2.92789361	      4.61811162	     12.62733698	     28.32930349	      0.16644098	     -3.42813417	     -9.84254197	    -10.80206690	      4.23615675	     13.51005858	      9.48266842	     -3.13279996	     12.96358855
      4.06000000	     -9.02665900	      4.24941597	     -9.54739564	     -2.26628348	     -0.02781766	      0.46705677	     -4.78664798	     -5.49958245	      6.21179655	    -22.76230657	     -4.12086524	      4.67400684	     13.45117737	     28.28994870	      0.57722831	     -3.41973219	    -10.26447305	    -11.71617468	      3.87411731	     13.26194322	      9.67147870	     -3.40847614	     12.98372076
      4.06500000	     -9.04221593	      4.56436678	     -9.44660786	     -2.25920382	     -0.02771685	      0.46599456	     -4.44772004	     -5.93110468	      6.02671794	    -23.91277550	     -5.41174535	      4.63007347	     13.93434807	     28.23855722	      1.03670948	     -3.46466260	    -10.73257969	    -12.43208141	      3.63066903	     12.90546481	      9.84886687	     -3.75944773	     12.98289892
      4.07000000	     -9.08413442	      4.77464580	     -9.38758414	     -2.25235833	     -0.02757157	      0.46480131	     -4.00198615	     -6.27111345	      5.84066800	    -25.08516941	     -6.93705806	      4.58546889	     15.18139565	     28.22256944	      1.41481610	     -3.19864611	    -11.27673525	    -13.11675210	      2.82537288	     12.01847428	      9.99690517	     -3.97309191	     13.04787146
      4.07500000	     -9.08642061	      5.01187238	     -9.30318214	     -2.24542316	     -0.02736284	      0.46367679	     -3.56813546	     -6.61761392	      5.67648156	    -26.30571404	     -8.62934436	      4.33563189	     16.20020282	     28.17783373	      1.83026953	     -3.01505582	    -11.88095441	    -13.47437189	      2.21332415	     11.09781241	     10.11609384	     -4.23109137	     13.08014875
      4.08000000	     -9.08684619	      5.23415566	     -9.22647885	     -2.23854397	     -0.02713558	      0.46261218	     -3.07459776	     -6.93188600	      5.54029179	    -27.59713346	    -10.44563577	      4.00800687	     17.18936024	     28.13869254	      2.23211540	     -2.81180095	    -12.54084786	    -13.57582004	      1.61981161	     10.08235912	     10.22210719	     -4.48163211	     13.11653158
      4.08500000	     -9.07171226	      5.44984359	     -9.10200435	     -2.23173023	     -0.02690139	      0.46151616	     -2.55419941	     -7.23102954	      5.35919916	    -28.92191424	    -12.40026762	      3.55418482	     18.42381737	     28.10781348	      2.65344612	     -2.63050371	    -13.28072836	    -13.34791155	      1.23272664	      8.98692626	     10.29146196	     -4.74179044	     13.08534195
      4.09000000	     -9.06835440	      5.62739539	     -9.08117960	     -2.22499825	     -0.02662800	      0.46059103	     -1.93265202	     -7.44893966	      5.37650429	    -30.36930905	    -14.44729180	      3.03523181	     19.07458510	     28.03289435	      2.99788902	     -2.39786986	    -13.94330592	    -13.09248248	      0.66810172	      8.16654947	     10.36610687	     -4.94018499	     13.19169479
      4.09500000	     -9.08396279	      5.83572225	     -8.96324614	     -2.21839006	     -0.02644247	      0.45959450	     -1.24188075	     -7.68910032	      5.26919699	    -31.85556135	    -16.56664332	      2.33620719	     20.19465553	     28.01791111	      3.40843133	     -2.18004737	    -14.68840044	    -12.53939016	      0.42022640	      7.29534082	     10.43400299	     -5.19744934	     13.17296518
      4.10000000	     -9.08066723	      6.03166086	     -8.89953020	     -2.21184928	     -0.02620058	      0.45871697	     -0.49960215	     -7.88749333	      5.26215207	    -33.43819972	    -18.72414295	      1.59361194	     20.82727344	     27.92798097	      3.78661715	     -1.97592883	    -15.33518795	    -11.97909988	      0.15098381	      6.73411157	     10.47725607	     -5.43609734	     13.21662081
      4.10500000	     -9.08896298	      6.25531827	     -8.82644253	     -2.20531887	     -0.02596139	      0.45785974	      0.31167151	     -8.09978338	      5.24120062	    -35.08966207	    -20.89692375	      0.78916447	     21.22448491	     27.81121237	      4.19492527	     -1.81566026	    -15.89852078	    -11.40972487	     -0.08612282	      6.35518768	     10.53969971	     -5.70092179	     13.22326926
      4.11000000	     -9.14271926	      6.51277419	     -8.70272401	     -2.19897819	     -0.02584969	      0.45702782	      1.23803874	     -8.32341523	      5.17551688	    -36.81691329	    -22.99928733	     -0.21145500	     21.82359881	     27.74989608	      4.63505254	     -1.63834817	    -16.46804250	    -10.66438512	     -0.03975256	      5.98630035	     10.61971062	     -6.01551980	     13.18851372
      4.11500000	     -9.17453531	      6.79173831	     -8.58817299	     -2.19268403	     -0.02570247	      0.45622284	      2.20535734	     -8.56964224	      5.07407368	    -38.62850372	    -25.03051490	     -1.27290663	     21.94278059	     27.62274604	      5.09666178	     -1.54491334	    -16.93145030	    -10.01109932	     -0.06197984	      5.76859524	     10.67971174	     -6.35421316	     13.13718442
      4.12000000	     -9.15630128	      7.11536627	     -8.51073943	     -2.18653460	     -0.02554446	      0.45546387	      3.20446088	     -8.86453802	      4.97219952	    -40.54711524	    -26.86580316	     -2.45801182	     21.61247411	     27.39515392	      5.60175707	     -1.43581790	    -17.26435648	     -9.49911973	     -0.22871609	      5.69930959	     10.67404369	     -6.73485230	     13.13092255
